<svg id="Layer_1" data-name="Layer 1" xmlns="http://www.w3.org/2000/svg" viewBox="0 0 593.49 592.65"><defs><style>.cls-1{stroke:#000;stroke-miterlimit:10;stroke-width:6px;}</style></defs><title>jb</title><path class="cls-1" d="M570.09,373.79Q546.18,341.21,506,335v-1.37a78.29,78.29,0,0,0,29.45-14.41,102.77,102.77,0,0,0,22.74-25A121.63,121.63,0,0,0,573,261.29a134.07,134.07,0,0,0,5.25-37.39q0-34.29-11.08-57.28t-29.45-37a112.55,112.55,0,0,0-42.56-19.9,215.06,215.06,0,0,0-50.44-5.83H308.14V7h-.29V7H7V49.14H262.49V303.89c0,21.93-.36,40.72-3,56.38a99.64,99.64,0,0,1-15.08,38.6c-6.71,10.07-17.85,17.46-29.48,22.16s-42.09,8-60,8c-23.72,0-53.49-5.56-65.8-14.74S68,394.07,62.59,381.08s-9.51-26.62-10.4-40.95S51,326,51.19,303.21H6.51c0,21,.8,41.4,4.39,61.09s10.29,37,20.14,52S54.53,443.41,72,452.58s56.49,14.74,83.79,14.74c25.95,0,58.55-4.88,76.23-10.69a113.76,113.76,0,0,0,36.63-20.38v157.4h176.1q33.81,0,58-7.2t40.81-18.53a95.29,95.29,0,0,0,26.53-26.41A133.89,133.89,0,0,0,585.25,511a148,148,0,0,0,7-30.19A225.67,225.67,0,0,0,594,454.39Q594,406.39,570.09,373.79ZM308.29,143.64H444.73q93.87,0,93.88,91.92a88.75,88.75,0,0,1-5.83,32.24,73.1,73.1,0,0,1-17.5,26.41q-11.67,11.32-29.15,17.84t-41.4,6.52H308.29ZM545.6,502.07q-8.75,19.55-23.9,31.21a88.42,88.42,0,0,1-35,16.12,190.47,190.47,0,0,1-42,4.46H308.29V358.35H444.73q53.06,0,81.34,23.67t28.28,71Q554.35,482.53,545.6,502.07Z" transform="translate(-3.51 -4)"/></svg>